<?xml version="1.0" encoding="utf-8"?>
<!-- Generator: Adobe Illustrator 25.2.0, SVG Export Plug-In . SVG Version: 6.00 Build 0)  -->
<svg version="1.0" id="Calque_1" xmlns="http://www.w3.org/2000/svg" xmlns:xlink="http://www.w3.org/1999/xlink" x="0px" y="0px"
	 viewBox="0 0 25 25" style="enable-background:new 0 0 25 25;" xml:space="preserve">
<style type="text/css">
	.st0{fill:#394B63;}
	.st1{fill:#BE1622;}
</style>
<g id="Groupe_532" transform="translate(0.25 -21.08)">
	<path class="st0" d="M22.9,31.6c-0.1-0.2-0.2-0.3-0.3-0.4l-4-1.7c-0.3-0.1-0.7,0-0.8,0.3c-0.1,0.3,0,0.7,0.3,0.8l2.7,1.2l-8.4,3.7
		l-8.4-3.7l2.7-1.2c0.3-0.1,0.4-0.5,0.3-0.8c-0.1-0.3-0.5-0.5-0.8-0.4l-4,1.7c-0.1,0.1-0.3,0.2-0.3,0.3c-0.1,0.2-0.1,0.3,0,0.5
		c0.1,0.2,0.2,0.3,0.3,0.4l10,4.4c0.1,0,0.2,0.1,0.2,0.1h0c0.1,0,0.2,0,0.2-0.1l10-4.4c0.1-0.1,0.3-0.2,0.3-0.3
		C22.9,31.9,22.9,31.8,22.9,31.6z"/>
	<path class="st0" d="M22.9,35.1c-0.1-0.2-0.2-0.3-0.3-0.4l-4-1.8c-0.2-0.1-0.3-0.1-0.5,0c-0.2,0.1-0.3,0.2-0.3,0.4
		c-0.1,0.2-0.1,0.3,0,0.5c0.1,0.2,0.2,0.3,0.3,0.3l2.7,1.2L12.2,39l-8.4-3.7l2.7-1.2c0.3-0.1,0.5-0.5,0.3-0.8C6.7,33,6.3,32.9,6,33
		l-4,1.7c-0.1,0.1-0.3,0.2-0.3,0.3c-0.1,0.3,0,0.7,0.3,0.8l10,4.4c0.1,0,0.2,0.1,0.3,0.1l0.2,0v0c0,0,0,0,0.1,0l10-4.4
		c0.1-0.1,0.3-0.2,0.3-0.3C22.9,35.4,22.9,35.3,22.9,35.1z"/>
	<path class="st0" d="M22.9,38.6c-0.1-0.2-0.2-0.3-0.3-0.4l-4-1.8c-0.3-0.1-0.7,0-0.8,0.4c-0.1,0.2-0.1,0.3,0,0.5
		c0.1,0.2,0.2,0.3,0.3,0.3l2.7,1.2l-8.4,3.7l-8.4-3.7l2.7-1.2c0.3-0.1,0.5-0.5,0.3-0.8c-0.1-0.2-0.2-0.3-0.4-0.3
		c-0.2-0.1-0.3-0.1-0.5,0l-4,1.7c-0.1,0.1-0.3,0.2-0.3,0.3c-0.1,0.3,0,0.7,0.3,0.8l10,4.4c0.1,0,0.2,0.1,0.2,0.1l0,0
		c0.1,0,0.2,0,0.3-0.1l10-4.4c0.1-0.1,0.3-0.2,0.3-0.3C22.9,38.9,22.9,38.7,22.9,38.6z"/>
	<path class="st1" d="M22.9,28.1c-0.1-0.2-0.2-0.3-0.3-0.4l-10-4.4c-0.2-0.1-0.3-0.1-0.5,0L2,27.8c-0.1,0.1-0.3,0.2-0.3,0.3
		c-0.1,0.3,0,0.7,0.3,0.8l10,4.4c0.1,0,0.2,0.1,0.3,0.1v0c0.1,0,0.2,0,0.3-0.1l10-4.4c0.1-0.1,0.3-0.2,0.3-0.3
		C22.9,28.4,22.9,28.3,22.9,28.1z M20.7,28.3L12.2,32l-8.4-3.7l8.4-3.7L20.7,28.3z"/>
</g>
</svg>
