<?xml version="1.0" encoding="utf-8"?>
<!-- Generator: Adobe Illustrator 25.2.0, SVG Export Plug-In . SVG Version: 6.00 Build 0)  -->
<svg version="1.0" id="Calque_1" xmlns="http://www.w3.org/2000/svg" xmlns:xlink="http://www.w3.org/1999/xlink" x="0px" y="0px"
	 viewBox="0 0 25 25" style="enable-background:new 0 0 25 25;" xml:space="preserve">
<style type="text/css">
	.st0{fill:#374B65;}
	.st1{fill:#BE1622;}
</style>
<g>
	<path class="st0" d="M21,19.1L21,19.1L15,8.7V4.1h1.2V2.6H8.8v1.5H10v4.6L4.1,18.9c-0.3,0.5-0.4,1.2-0.2,1.8
		c0.2,0.6,0.5,1.1,1.1,1.4c0.4,0.2,0.8,0.3,1.2,0.3h12.8c1.3,0,2.3-1,2.3-2.3C21.2,19.7,21.2,19.4,21,19.1z M19.7,20.5L19.7,20.5
		c-0.2,0.3-0.4,0.4-0.7,0.4c0,0,0,0,0,0H6.1c-0.5,0-0.9-0.4-0.9-0.9c0-0.2,0-0.3,0.1-0.4L8.6,14h7.8l3.2,5.6
		C19.8,19.9,19.8,20.2,19.7,20.5z M15.6,12.5H9.4l2-3.5v-5h2.1v5L15.6,12.5z"/>
	<path id="Tracé_2378" class="st1" d="M13.5,15c-1,0-1.8,0.8-1.8,1.8s0.8,1.8,1.8,1.8s1.8-0.8,1.8-1.8S14.5,15,13.5,15z M13.5,17.4
		c-0.3,0-0.6-0.3-0.6-0.6c0-0.3,0.3-0.6,0.6-0.6c0.3,0,0.6,0.3,0.6,0.6C14.1,17.2,13.8,17.4,13.5,17.4z"/>
	<path id="Tracé_2379" class="st1" d="M9.9,16.6c0,0.4-0.4,0.8-0.8,0.8c-0.4,0-0.8-0.4-0.8-0.8c0-0.4,0.4-0.8,0.8-0.8c0,0,0,0,0,0
		C9.5,15.8,9.9,16.2,9.9,16.6C9.9,16.6,9.9,16.6,9.9,16.6z"/>
	<path id="Tracé_2380" class="st1" d="M17.9,19c0,0.4-0.4,0.8-0.8,0.8c-0.4,0-0.8-0.4-0.8-0.8c0-0.4,0.4-0.8,0.8-0.8c0,0,0,0,0,0
		C17.5,18.2,17.9,18.6,17.9,19C17.9,19,17.9,19,17.9,19z"/>
	<path id="Tracé_2381" class="st1" d="M10.7,19c0,0.4-0.4,0.8-0.8,0.8c-0.4,0-0.8-0.4-0.8-0.8c0-0.4,0.4-0.8,0.8-0.8c0,0,0,0,0,0
		C10.3,18.2,10.7,18.6,10.7,19C10.7,19,10.7,19,10.7,19z"/>
</g>
</svg>
