<?xml version="1.0" encoding="utf-8"?>
<!-- Generator: Adobe Illustrator 25.2.0, SVG Export Plug-In . SVG Version: 6.00 Build 0)  -->
<svg version="1.0" id="Calque_1" xmlns="http://www.w3.org/2000/svg" xmlns:xlink="http://www.w3.org/1999/xlink" x="0px" y="0px"
	 viewBox="0 0 25 25" style="enable-background:new 0 0 25 25;" xml:space="preserve">
<style type="text/css">
	.st0{fill:none;}
	.st1{fill:#394B63;}
	.st2{fill:#BE1622;}
</style>
<g id="Rectangle_171" transform="translate(0 5.257)">
	<g>
		<path class="st0" d="M5.6,2.5h13.7c1.8,0,3.2,1.4,3.2,3.2V13c0,1.8-1.4,3.2-3.2,3.2H5.6c-1.8,0-3.2-1.4-3.2-3.2V5.7
			C2.4,4,3.9,2.5,5.6,2.5z"/>
	</g>
	<g>
		<path class="st1" d="M19.4,16.2H5.6c-1.8,0-3.2-1.4-3.2-3.2V5.7c0-1.8,1.4-3.2,3.2-3.2h13.7c1.8,0,3.2,1.4,3.2,3.2V13
			C22.6,14.8,21.1,16.2,19.4,16.2z M5.6,4.1C4.8,4.1,4,4.8,4,5.7V13c0,0.9,0.7,1.6,1.6,1.6h13.7c0.9,0,1.6-0.7,1.6-1.6V5.7
			c0-0.9-0.7-1.6-1.6-1.6H5.6z"/>
	</g>
</g>
<g id="Ligne_52">
	<path class="st2" d="M19.2,7.2H5.8C5.4,7.2,5,6.8,5,6.3s0.4-0.8,0.8-0.8h13.4c0.4,0,0.8,0.4,0.8,0.8S19.6,7.2,19.2,7.2z"/>
</g>
<g id="Ligne_54">
	<path class="st2" d="M17.2,5.1H8.1c-0.4,0-0.8-0.4-0.8-0.8s0.4-0.8,0.8-0.8h9.1c0.4,0,0.8,0.4,0.8,0.8S17.6,5.1,17.2,5.1z"/>
</g>
</svg>
